<svg width="70" height="56" viewBox="0 0 70 56" fill="none" xmlns="http://www.w3.org/2000/svg">
<g clip-path="url(#clip0_277_83)">
<path d="M51.8113 11.7194C51.5009 11.7552 51.2205 11.8687 50.946 12.006C50.8624 12 50.7908 12.0119 50.7431 12.0836H50.7013L50.6715 12.1075C50.5939 12.0955 50.5282 12.1134 50.4805 12.1791C50.379 12.1791 50.2895 12.2149 50.2179 12.2866C50.1403 12.2806 50.0747 12.2985 50.0269 12.3642C49.2392 12.6149 48.5171 13.003 47.7891 13.3851C46.0824 14.2866 44.5129 15.3851 43.0389 16.6269C42.9792 16.6746 42.9315 16.7343 42.8837 16.7881C42.836 16.7881 42.8121 16.8119 42.8061 16.8597L42.7942 16.8716C42.7465 16.8716 42.7166 16.9015 42.7047 16.9492C41.6067 17.8567 40.6399 18.8836 39.7388 19.9821C38.4677 21.5343 37.3756 23.2 36.6177 25.0686C36.5581 25.2239 36.4685 25.3672 36.4626 25.5403C36.4208 25.5642 36.4029 25.606 36.4148 25.6537C36.3731 25.7194 36.3373 25.7851 36.3552 25.8627C36.2955 25.9463 36.2239 26.0298 36.379 26.0836C36.94 26.0895 37.5069 26.1015 38.0679 26.1015C39.3509 26.1015 40.628 26.1015 41.911 26.1015C42.0602 26.1015 42.2153 26.0776 42.3824 26.1373C42.3824 26.4418 42.1736 26.6985 42.1437 26.997C42.102 27.0269 42.0841 27.0627 42.096 27.1104C41.9826 27.6418 41.6365 27.7313 41.1292 27.7313C37.0414 27.7075 32.9477 27.7194 28.8598 27.7194C28.8002 27.7194 28.7405 27.7194 28.6748 27.7194C28.1616 27.7194 28.2332 27.7612 28.0423 27.3075C28.0005 27.2119 27.9528 27.1164 27.911 27.0149C27.9229 26.9672 27.905 26.9373 27.8633 26.9134C27.8454 26.6388 27.6425 26.4119 27.6723 26.1254C27.8454 26.0657 28.0184 26.0955 28.1795 26.0955C29.8266 26.0955 31.4796 26.0955 33.1267 26.0955C33.2938 26.0955 33.4609 26.0836 33.628 26.0776C33.7592 26.0776 33.7533 26.0119 33.7115 25.9224C33.7115 25.7851 33.6518 25.6657 33.5922 25.5463C33.6041 25.4985 33.5922 25.4627 33.5444 25.4388C33.3654 24.7701 33.0431 24.1672 32.7209 23.5582C31.9869 22.1612 31.0738 20.8836 30.0593 19.6776C30.0295 19.6418 29.9877 19.6179 29.9579 19.594C29.9579 19.5403 29.928 19.5104 29.8803 19.5045C29.749 19.2895 29.5879 19.1045 29.391 18.9492C29.391 18.9015 29.3671 18.8836 29.3253 18.8776L29.3134 18.8657C29.3134 18.8179 29.2835 18.7881 29.2358 18.7821L29.2239 18.7701C29.2239 18.7224 29.194 18.6925 29.1463 18.6866C28.8479 18.3045 28.5078 17.9761 28.1378 17.6716C28.1318 17.6179 28.102 17.594 28.0483 17.5881L28.0363 17.5821C28.0303 17.5343 28.0005 17.5045 27.9528 17.5045L27.9408 17.4925C27.9408 17.4448 27.911 17.4209 27.8633 17.4209C27.2546 16.7761 26.5563 16.2328 25.8581 15.6955C23.6859 14.0358 21.3287 12.7224 18.7328 11.8448C18.5598 11.7851 18.3986 11.6955 18.2077 11.7134C18.148 11.6298 18.0585 11.6239 17.969 11.6298L17.9511 11.606L17.9272 11.6239C17.8138 11.5582 17.7064 11.4507 17.599 11.6358C17.1335 12.4657 16.8172 13.3552 16.5188 14.2507C15.7848 16.4358 15.3731 18.6866 15.4148 20.997C15.4864 25.6597 17.0261 29.7552 20.2605 33.1642C21.8419 34.8298 23.7277 36.0477 25.8999 36.8119C26.0551 36.8657 26.2102 36.9433 26.3833 36.9313C26.4072 36.9731 26.437 36.991 26.4847 36.9731C26.6757 37.0507 26.8667 37.1283 27.0815 37.1104C27.1173 37.1642 27.165 37.1761 27.2247 37.1642C27.4754 37.2298 27.726 37.3254 27.9945 37.2955C28.0303 37.3492 28.0781 37.3492 28.1378 37.3373C28.9494 37.4866 29.7729 37.5224 30.5964 37.4627C30.9306 37.4388 31.2111 37.4985 31.4916 37.7015C31.969 38.0477 32.4941 38.3283 33.0551 38.6268C32.8522 38.788 32.6373 38.788 32.4404 38.8239C30.3219 39.194 28.2213 39.0985 26.1506 38.5015C26.061 38.4776 25.9715 38.4716 25.882 38.4597C25.8283 38.394 25.7627 38.3761 25.6851 38.388C25.0048 38.1194 24.3185 37.8686 23.6621 37.5463C22.0448 36.7522 20.6186 35.6955 19.3415 34.4358C19.246 34.3403 19.1446 34.2507 19.0431 34.1552C19.0431 34.1134 19.0252 34.0955 18.9894 34.0955V34.0716H18.9656C18.9656 34.0298 18.9417 34.006 18.8999 34L18.882 33.9761C18.882 33.9283 18.8581 33.9045 18.8104 33.9045L18.7925 33.8866C18.7925 33.8388 18.7686 33.8149 18.7209 33.8089L18.7089 33.797C18.7089 33.7492 18.6791 33.7194 18.6314 33.7134L18.6254 33.7015C18.6254 33.6537 18.5956 33.6179 18.5478 33.6119C17.9272 32.8239 17.3066 32.0358 16.7754 31.1761C16.2026 30.2507 15.7371 29.2776 15.2955 28.2925C15.3074 28.2507 15.2895 28.2209 15.2477 28.197C14.9135 27.2597 14.6271 26.3104 14.3645 25.3492C14.3645 25.3373 14.3765 25.3194 14.3765 25.3134C14.3645 25.2895 14.3526 25.2716 14.3407 25.2478C14.269 24.5791 14.1139 23.9283 14.0303 23.2597C13.726 20.7582 13.911 18.2925 14.4719 15.8507C14.9076 13.9403 15.6058 12.1194 16.4711 10.3582C16.674 9.94029 16.9664 9.70746 17.4498 9.78507C17.4975 9.8388 17.5572 9.85671 17.6288 9.8388C17.6945 9.85074 17.7541 9.86268 17.8198 9.87462L17.8496 9.90447H17.8914C17.969 9.97015 18.0704 9.97014 18.1659 9.97611C18.1898 10.0179 18.2256 10.0298 18.2673 10.0179C19.3296 10.3522 20.3679 10.7522 21.4003 11.1582C21.4123 11.194 21.4361 11.206 21.4719 11.194C21.5137 11.2119 21.5555 11.2298 21.5973 11.2478L21.6152 11.2776H21.651C22.5581 11.7552 23.4592 12.2388 24.3662 12.7164L24.3722 12.7403H24.3961C24.5095 12.8537 24.6527 12.9313 24.8078 12.9851C24.8556 13.0328 24.9033 13.1224 24.957 12.9851C25.1719 12.3821 25.3748 11.7791 25.6075 11.1821C27.4037 6.57313 30.4174 2.95522 34.5112 0.202985C34.6484 0.101492 34.8573 0.0238806 35.09 0L35.1139 0.0179104L35.1378 0C35.2153 0.0298507 35.2989 0.0537313 35.3765 0.0835821C35.3824 0.113433 35.4063 0.125373 35.4361 0.119403C35.4958 0.191045 35.5734 0.244776 35.6629 0.268657L35.6749 0.298507H35.7047C35.7644 0.376119 35.836 0.429851 35.9255 0.447761C35.9255 0.483582 35.9494 0.495522 35.9852 0.495522C36.1224 0.632836 36.2716 0.746268 36.4506 0.82388C36.4626 0.871641 36.4924 0.895522 36.5402 0.895522C37.31 1.52239 38.0917 2.13134 38.8078 2.81194C41.7021 5.55224 43.755 8.82388 44.9604 12.6209C44.9903 12.7224 45.038 12.8179 45.0738 12.9194C45.0738 13.0567 45.1156 13.1224 45.2469 13.009C45.3185 13.009 45.3662 12.9731 45.4021 12.9134C46.333 12.406 47.2639 11.8985 48.1949 11.391H48.2307L48.2546 11.3612C49.0602 11.0388 49.8599 10.7224 50.6655 10.4C50.7073 10.4119 50.7311 10.4 50.749 10.3582C50.8266 10.3582 50.8922 10.3463 50.9519 10.2866H50.9937L51.0235 10.2567C51.5248 10.1254 52.0201 9.98806 52.5214 9.85671C53.0704 9.7194 53.3151 9.81492 53.5657 10.3164C54.7831 12.7343 55.6186 15.2716 55.9826 17.9582C56.3108 20.3821 56.2452 22.794 55.7141 25.188C55.6962 25.2597 55.7021 25.3373 55.6962 25.4149C55.6544 25.4507 55.6365 25.4925 55.6484 25.5463C55.4813 26.1433 55.3142 26.7403 55.1472 27.3313C55.0994 27.3672 55.0815 27.4149 55.0875 27.4686C54.7533 28.2507 54.4549 29.0507 54.061 29.8149C53.4285 31.0388 52.6825 32.1851 51.7993 33.2477C51.7516 33.3074 51.7158 33.3731 51.674 33.4328C51.6263 33.4388 51.5964 33.4686 51.5964 33.5224L51.5845 33.5403C51.5427 33.5403 51.5188 33.5642 51.5188 33.6119C50.9877 34.1433 50.4566 34.6746 49.9255 35.206C49.8837 35.206 49.8599 35.2239 49.8539 35.2657C49.8539 35.2657 49.836 35.2836 49.836 35.2776C49.7882 35.2776 49.7644 35.3074 49.7524 35.3492L49.7405 35.3612C49.6868 35.3612 49.657 35.391 49.651 35.4388C48.9349 35.9821 48.2009 36.5074 47.4489 37.003C47.3773 37.003 47.3236 37.0328 47.2878 37.0925L47.2699 37.0985C47.2162 37.0985 47.1744 37.1164 47.1565 37.1701C46.6433 37.4209 46.1361 37.6716 45.6229 37.9224C45.5453 37.9224 45.4796 37.9343 45.4319 38C45.3245 38 45.2409 38.0418 45.1633 38.1074C45.0858 38.1015 45.0201 38.1194 44.9664 38.1791C44.304 38.3522 43.6655 38.591 42.9911 38.7283C40.2341 39.3015 37.5427 39.0686 34.9229 38.0537C33.9263 37.6657 32.9894 37.1701 32.0943 36.5791C31.969 36.4955 31.8377 36.4239 31.7064 36.3463C31.6885 36.2985 31.6527 36.2746 31.599 36.2686L31.587 36.2627C31.5811 36.2209 31.5512 36.197 31.5035 36.197C30.9843 35.7612 30.4592 35.3254 29.94 34.8836C29.934 34.8298 29.8982 34.806 29.8505 34.806L29.8385 34.8C29.8326 34.7522 29.8027 34.7224 29.755 34.7164L29.7431 34.7045C29.7431 34.6567 29.7132 34.6269 29.6595 34.6209L29.6476 34.6089C29.6476 34.5612 29.6177 34.5313 29.564 34.5254L29.5521 34.5134C29.5521 34.4657 29.5222 34.4358 29.4745 34.4239C29.1403 34.0298 28.8002 33.6477 28.4779 33.2418C27.3083 31.7851 26.3773 30.191 25.6731 28.4597C25.6194 28.3343 25.5598 28.2089 25.5001 28.0895C25.512 28.0418 25.4941 28.006 25.4523 27.9821C25.3867 27.6657 25.2614 27.3731 25.1361 27.0806C25.148 27.0328 25.1361 26.991 25.0883 26.9612C24.9093 26.191 24.6587 25.4388 24.4916 24.6627C23.9187 21.9522 23.8053 19.2179 24.1753 16.4716C24.1872 16.3701 24.1753 16.2567 24.3066 16.1433C24.7422 16.4179 25.148 16.7522 25.5598 17.0806C25.691 17.1881 25.6373 17.3313 25.6254 17.4627C25.512 18.5731 25.4822 19.6895 25.5478 20.8C25.8104 25.1164 27.0934 29.0567 29.8564 32.4477C30.8769 33.7015 32.0824 34.7463 33.4668 35.5821C33.5981 35.6597 33.7175 35.7612 33.8726 35.7851C34.0875 35.9582 34.0934 35.9582 34.1412 35.7851C34.1471 35.6358 34.165 35.4806 34.165 35.3313C34.165 33.2418 34.165 31.1582 34.165 29.0686C34.165 28.7522 34.165 28.7463 34.4933 28.7403C34.8275 28.7403 35.1616 28.7403 35.4958 28.7403C35.8061 28.7403 35.8121 28.7522 35.8121 29.0806C35.8121 30.0537 35.8121 31.0328 35.8121 32.006C35.8121 33.2716 35.824 34.5313 35.83 35.797C35.9255 36.0239 36.009 35.8388 36.0926 35.791C36.8624 35.4388 37.5308 34.9313 38.1693 34.4C40.067 32.8239 41.4754 30.8716 42.5137 28.6448C43.7371 26.0239 44.3518 23.2657 44.4472 20.3821C44.4472 20.3224 44.4353 20.2627 44.4293 20.203C44.483 19.8388 44.483 19.4686 44.4293 19.1045C44.4592 18.5731 44.4174 18.0418 44.3518 17.5164C44.3219 17.2716 44.3518 17.0925 44.5845 16.9373C44.9545 16.6806 45.2887 16.3701 45.6825 16.1433C45.8198 16.2328 45.7899 16.3701 45.8019 16.4776C45.8854 17.2597 45.957 18.0418 46.0346 18.8298C45.9928 18.9492 45.9928 19.0746 46.0346 19.194C45.9988 20.394 45.9749 21.594 45.8078 22.788C45.6467 23.9522 45.414 25.0985 45.0798 26.2209C45.0559 26.3045 45.05 26.4 45.0321 26.4895C44.9903 26.5194 44.9724 26.5612 44.9843 26.6149C44.9246 26.7522 44.853 26.8895 44.853 27.0507C44.8113 27.0806 44.7934 27.1164 44.8053 27.1642C44.68 27.4567 44.5547 27.7492 44.489 28.0657C44.4472 28.0895 44.4234 28.1254 44.4353 28.1731C44.0235 29.0866 43.6177 30.006 43.1105 30.8716C42.5316 31.8567 41.8812 32.794 41.1352 33.6597C41.0576 33.7492 40.992 33.8507 40.9144 33.9463C40.8667 33.9522 40.8368 33.988 40.8368 34.0358L40.8249 34.0477C40.7772 34.0477 40.7473 34.0776 40.7473 34.1313L40.7354 34.1433C40.6876 34.1492 40.6638 34.1791 40.6638 34.2209L40.6459 34.2388C40.6041 34.2388 40.5802 34.2627 40.5802 34.3045C40.3117 34.5433 40.0491 34.7821 39.8164 35.0627C39.7686 35.0627 39.7448 35.0866 39.7388 35.1343L39.7269 35.1463C39.6791 35.1463 39.6493 35.1761 39.6433 35.2239C39.4643 35.3254 39.3151 35.4627 39.1778 35.6179C39.1361 35.6179 39.1122 35.6358 39.1062 35.6836L39.0883 35.6955C39.0346 35.6955 39.0107 35.7194 38.9988 35.7731C38.4796 36.1433 37.9545 36.5074 37.4353 36.8776C37.3816 36.8776 37.3398 36.9015 37.3279 36.9552C37.2563 36.9731 37.1548 36.991 37.2026 37.0866C37.2443 37.1701 37.3577 37.1582 37.4472 37.1463C37.6621 37.2239 37.8829 37.2895 38.1216 37.2597C38.1574 37.3134 38.2111 37.3194 38.2648 37.3015C39.4643 37.5045 40.6578 37.5045 41.8573 37.3015C41.917 37.3134 41.9647 37.3074 42.0065 37.2537C42.8061 37.2 43.564 36.9671 44.304 36.6925C47.8488 35.3731 50.4566 32.9672 52.3006 29.7134C54.1923 26.3701 54.8786 22.7642 54.5206 18.9552C54.3952 17.6 54.1506 16.2687 53.7269 14.9731C53.7388 14.9254 53.7269 14.8895 53.6851 14.8597C53.6433 14.5134 53.5061 14.191 53.3748 13.8746C53.3867 13.8209 53.3688 13.7851 53.3211 13.7552C53.1003 12.997 52.7959 12.2746 52.42 11.5761C52.3006 11.4089 52.1872 11.5164 52.0738 11.5761L52.044 11.5642L52.0261 11.5881C51.9366 11.5821 51.853 11.5881 51.7934 11.6657L51.8113 11.7194ZM35.0542 24.7164C35.3586 23.994 35.6749 23.2836 36.0568 22.603C37.9067 19.3015 40.4191 16.5851 43.4208 14.3104C43.761 14.0537 43.7669 14.0537 43.6476 13.6358C42.2273 8.76418 39.4106 4.88955 35.2989 1.93433C35.0662 1.76716 34.9229 1.79104 34.7081 1.94627C30.6024 4.90149 27.7857 8.77612 26.3714 13.6537C26.2401 14.0955 26.2401 14.0418 26.5743 14.2925C27.8692 15.2657 29.0866 16.3343 30.1966 17.5164C32.1599 19.6 33.801 21.8985 34.8991 24.5612C34.9229 24.6149 34.9408 24.6746 35.0483 24.7224L35.0542 24.7164Z" fill="#683525"/>
<path d="M0.167017 55.7732C0.0596002 55.7254 0.0058918 55.6538 0.0118594 55.5284C0.017827 55.1463 0.0118594 54.7702 0.0118594 54.3881C0.0118594 54.2806 0.00589179 54.1672 0.143147 54.1373C0.381851 54.0836 0.375883 53.8926 0.375883 53.7075C0.375883 51.212 0.375883 48.7165 0.375883 46.2209C0.375883 46.1135 0.387818 46.006 0.31024 45.9165C0.262499 45.815 0.167017 45.815 0.077503 45.8269C-0.0597518 45.3493 0.0416974 44.8597 0.017827 44.3762C0.0118594 44.2448 0.0894382 44.1851 0.220725 44.1911C0.328142 44.1911 0.435559 44.1911 0.542976 44.1911C4.25482 44.1911 7.96071 44.1911 11.6726 44.1911C11.7621 44.1911 11.8576 44.1911 11.9471 44.1911C12.2574 44.215 12.3708 44.3284 12.3946 44.6508C12.4066 44.7881 12.3946 44.9254 12.3946 45.0627C12.3946 48.1015 12.3946 51.1344 12.3946 54.1732C12.3827 54.203 12.3648 54.2269 12.3529 54.2567C12.3051 54.2687 12.2813 54.2985 12.2753 54.3463L12.2633 54.3582C12.2216 54.3582 12.1977 54.3881 12.2037 54.4299C12.0784 54.5373 11.965 54.6568 11.8934 54.806C11.8456 54.8179 11.8217 54.8418 11.8217 54.8956L11.8098 54.9135C11.768 54.9194 11.7442 54.9433 11.7442 54.9851H11.7203V55.0209L11.6905 55.0269V55.0568C11.4816 55.2896 11.2727 55.5224 11.0639 55.7553C11.0281 55.7433 10.9922 55.7373 10.9684 55.7791H10.9624C10.8311 55.7254 10.6939 55.7493 10.5566 55.7493C7.23266 55.7493 3.9087 55.7493 0.584749 55.7493C0.447494 55.7493 0.31024 55.7314 0.178952 55.7791L0.167017 55.7732ZM6.39719 54.1314C7.71007 54.1314 9.02294 54.1314 10.3358 54.1314C10.7714 54.1314 10.7774 54.1314 10.7774 53.7194C10.7774 51.2179 10.7774 48.7165 10.7774 46.215C10.7774 45.815 10.7774 45.815 10.3716 45.815C7.71603 45.815 5.06045 45.815 2.40487 45.815C2.01697 45.815 2.01101 45.815 2.01101 46.2269C2.01101 48.7284 2.01101 51.2299 2.01101 53.7314C2.01101 54.1314 2.01101 54.1373 2.4168 54.1373C3.74161 54.1373 5.07239 54.1373 6.39719 54.1373V54.1314Z" fill="#683525"/>
<path d="M60.9827 55.7432C60.8992 55.5403 60.935 55.3731 60.929 55.2059C60.929 53.2238 60.929 51.2358 60.929 49.2537C60.929 49.1462 60.929 49.0388 60.929 48.9313C60.9409 48.7522 60.8454 48.6865 60.6783 48.6925C60.6187 48.6925 60.559 48.6925 60.4934 48.6925C58.8463 48.6925 57.1933 48.6925 55.5462 48.6925C55.1285 48.6925 55.1285 48.6925 55.1285 49.1224C55.1285 51.1224 55.1285 53.1224 55.1285 55.1224C55.1285 55.2298 55.1225 55.3373 55.1285 55.4447C55.1464 55.6477 55.0867 55.7552 54.854 55.7492C54.4124 55.7373 53.9708 55.7492 53.553 55.7492C53.4695 55.5582 53.4993 55.403 53.4993 55.2537C53.4993 52.5791 53.4993 49.9104 53.4993 47.2358C53.4993 47.1462 53.5053 47.0507 53.4993 46.9612C53.4874 46.788 53.559 46.7104 53.7321 46.7164C54.1319 46.7164 54.5257 46.7164 54.9256 46.7164C55.0211 46.7164 55.1106 46.7343 55.1344 46.8537C55.1822 47.0746 55.3493 47.0806 55.5223 47.0806C55.5999 47.0806 55.6775 47.0806 55.7491 47.0806C59.7474 47.0806 63.7517 47.0806 67.75 47.0806C67.9946 47.0806 68.293 47.1701 68.3885 46.8059C68.4124 46.7164 68.5078 46.7224 68.5795 46.7224C68.9793 46.7224 69.3731 46.7224 69.773 46.7224C69.9162 46.7224 70.0057 46.7701 69.9998 46.9313C69.9998 47.0388 69.9998 47.1462 69.9998 47.2537C69.9998 49.9104 69.9998 52.5671 69.9998 55.2238C69.9998 55.2835 69.9998 55.3432 69.9998 55.4089C69.9938 55.7492 69.9938 55.7552 69.6417 55.7612C69.2896 55.7612 68.9375 55.7612 68.5854 55.7612C68.4303 55.7612 68.3646 55.6955 68.3706 55.5403C68.3766 55.4328 68.3706 55.3253 68.3706 55.2179C68.3706 53.2358 68.3706 51.2477 68.3706 49.2656C68.3706 49.1582 68.3706 49.0507 68.3706 48.9433C68.3825 48.7582 68.2811 48.7044 68.12 48.7104C67.6784 48.7104 67.2367 48.7104 66.7892 48.7104C65.524 48.7104 64.2529 48.7104 62.9878 48.7104C62.5701 48.7104 62.5641 48.7104 62.5641 49.1403C62.5641 51.1403 62.5641 53.1403 62.5641 55.1403C62.5641 55.2477 62.5581 55.3552 62.5641 55.4627C62.582 55.6716 62.5223 55.7731 62.2896 55.7671C61.848 55.7552 61.4064 55.7671 60.9827 55.7671V55.7432Z" fill="#683525"/>
<path d="M14.4595 54.7223C14.0179 54.3104 13.9821 53.791 13.994 53.2238C14.0179 51.4208 14.0059 49.6178 14.0059 47.8208C14.0059 47.7014 14 47.576 14.0179 47.4566C14.0477 47.2357 14.179 47.0984 14.4117 47.0865C14.5311 47.0805 14.6564 47.0865 14.7757 47.0865C17.5984 47.0865 20.4271 47.0865 23.2497 47.0865C23.5243 47.0865 23.8525 47.188 23.9718 46.788C23.9957 46.7163 24.1031 46.7283 24.1807 46.7283C24.5626 46.7283 24.9445 46.7283 25.3265 46.7283C25.4995 46.7283 25.5831 46.794 25.5652 46.9731C25.5652 47.0328 25.5652 47.0925 25.5652 47.1581C25.5652 49.8925 25.5652 52.6268 25.5652 55.3552C25.5652 55.4746 25.5831 55.5999 25.5115 55.7611C25.0639 55.7611 24.5925 55.7611 24.121 55.7611C23.9778 55.7611 23.942 55.6716 23.942 55.5522C23.942 55.2955 23.942 55.0328 23.942 54.7761C23.942 54.6268 23.9838 54.4716 23.8644 54.2805C23.6317 54.5552 23.3691 54.794 23.196 55.0805C22.8499 55.6596 22.3665 55.7969 21.7101 55.785C19.7408 55.7372 17.7715 55.7611 15.8022 55.779C15.4561 55.779 15.2293 55.6775 15.0383 55.4029C14.8891 55.194 14.734 54.979 14.5311 54.8178C14.5311 54.7701 14.5132 54.7522 14.4714 54.7462L14.4595 54.7223ZM19.7706 54.1372C21.0059 54.1372 22.2412 54.1372 23.4765 54.1372C23.9301 54.1372 23.936 54.1372 23.936 53.6955C23.936 52.1731 23.936 50.6447 23.936 49.1223C23.936 48.6984 23.936 48.6925 23.5064 48.6925C21.0179 48.6925 18.5353 48.6925 16.0468 48.6925C15.641 48.6925 15.6351 48.6925 15.6351 49.0865C15.6351 50.6447 15.6351 52.1969 15.6351 53.7552C15.6351 54.1253 15.641 54.1313 16.017 54.1372C17.2702 54.1372 18.5174 54.1372 19.7706 54.1372Z" fill="#683525"/>
<path d="M50.1698 54.2448C49.8654 54.6089 49.5611 54.9433 49.2985 55.3074C49.0658 55.6298 48.7972 55.7552 48.3855 55.7492C46.2968 55.7254 44.2022 55.7313 42.1135 55.7492C41.7674 55.7492 41.5466 55.6477 41.3497 55.3791C41.099 55.0328 40.8186 54.7104 40.5381 54.388C40.3889 54.2149 40.3232 54.0418 40.3232 53.8089C40.3292 51.7671 40.3232 49.7194 40.3232 47.6776C40.3232 47.1642 40.4187 47.0746 40.9498 47.0746C43.8322 47.0746 46.7205 47.0746 49.6029 47.0746C49.8654 47.0746 50.1698 47.1522 50.2832 46.7821C50.307 46.7045 50.4085 46.7104 50.4861 46.7104C50.868 46.7104 51.2499 46.7164 51.6319 46.7104C51.8407 46.7104 51.8885 46.8 51.8885 46.9851C51.8825 47.3791 51.8885 47.7791 51.8885 48.1731C51.8885 50.5075 51.8885 52.8418 51.8885 55.1761C51.8885 55.2836 51.8825 55.391 51.8885 55.4985C51.9004 55.6657 51.8407 55.7492 51.6557 55.7492C51.2738 55.7433 50.8919 55.7373 50.5099 55.7492C50.3011 55.7552 50.2533 55.6537 50.2593 55.4686C50.2653 55.1642 50.2593 54.8597 50.2593 54.5552C50.2593 54.4657 50.2712 54.3761 50.1698 54.2507V54.2448ZM46.082 48.6866C44.8467 48.6866 43.6114 48.6866 42.3761 48.6866C41.9584 48.6866 41.9584 48.6866 41.9524 49.1224C41.9524 50.6507 41.9524 52.1731 41.9524 53.7015C41.9524 54.1254 41.9524 54.1313 42.3761 54.1313C44.8646 54.1313 47.3531 54.1313 49.8416 54.1313C50.2593 54.1313 50.2593 54.1313 50.2593 53.7015C50.2593 52.1731 50.2593 50.6507 50.2593 49.1224C50.2593 48.6925 50.2593 48.6925 49.8356 48.6925C48.5824 48.6925 47.3352 48.6925 46.082 48.6925V48.6866Z" fill="#683525"/>
<path d="M27.1835 51.2298C27.1835 49.8388 27.1835 48.4537 27.1835 47.0627C27.1835 46.7164 27.1894 46.7164 27.5356 46.7104C27.8101 46.7104 28.0846 46.7104 28.3591 46.7104C28.562 46.7104 28.7947 46.6507 28.8604 46.9612C28.8783 47.0507 28.9976 47.0686 29.0931 47.0746C29.2125 47.0746 29.3378 47.0746 29.4571 47.0746C32.2798 47.0746 35.1084 47.0746 37.9311 47.0746C38.0505 47.0746 38.1758 47.0686 38.2951 47.0746C38.5637 47.0985 38.6711 47.2119 38.7009 47.4806C38.7129 47.588 38.7009 47.6955 38.7009 47.803C38.7009 50.2746 38.7009 52.7522 38.7009 55.2238C38.7009 55.3134 38.7009 55.4089 38.7009 55.4985C38.7129 55.6716 38.6413 55.7492 38.4622 55.7433C38.0803 55.7373 37.6984 55.7373 37.3165 55.7433C37.1434 55.7433 37.0718 55.6776 37.0778 55.4985C37.0897 55.2537 37.0778 55.0089 37.0778 54.7642C37.0778 52.9015 37.0778 51.0388 37.0778 49.1761C37.0778 48.6925 37.0778 48.6865 36.6182 48.6865C34.1596 48.6865 31.7009 48.6865 29.2423 48.6865C29.1528 48.6865 29.0573 48.6865 28.9678 48.6865C28.8604 48.6925 28.8007 48.7522 28.7947 48.8597C28.7947 48.9791 28.7888 49.1044 28.7888 49.2238C28.7888 51.2059 28.7888 53.194 28.7888 55.1761C28.7888 55.2836 28.7828 55.391 28.7888 55.4985C28.8007 55.6836 28.7052 55.7313 28.5381 55.7313C28.1741 55.7253 27.8041 55.7194 27.4401 55.7313C27.2014 55.7433 27.1596 55.6298 27.1656 55.4268C27.1775 55.0925 27.1656 54.7522 27.1656 54.4179C27.1656 53.3492 27.1656 52.2806 27.1656 51.2119L27.1835 51.2298Z" fill="#683525"/>
<path d="M18.3866 44.4657C18.5358 44.5493 18.6909 44.6149 18.864 44.6269C18.8819 44.6627 18.8998 44.6806 18.9416 44.6627C19.6099 44.9254 20.2783 45.1702 20.9705 45.3612C20.9884 45.397 21.0063 45.4149 21.0481 45.397C21.1018 45.4448 21.1675 45.4627 21.2391 45.4567C21.257 45.4925 21.2868 45.5105 21.3226 45.4985C21.5017 45.6119 21.7284 45.6119 21.9671 45.8149C21.7762 45.8149 21.6508 45.8149 21.5196 45.8149C20.332 45.8149 19.1504 45.8149 17.9629 45.8149C17.5093 45.8149 17.4795 45.7851 17.4795 45.3194C17.4795 44.9731 17.4795 44.6209 17.4795 44.2508C17.8017 44.2269 18.0404 44.4418 18.3209 44.4478L18.3448 44.4776H18.3866V44.4657Z" fill="#683525"/>
<path d="M0.1671 55.7732C0.298388 55.7254 0.44161 55.7433 0.572897 55.7433C3.89685 55.7433 7.22081 55.7433 10.5448 55.7433C10.682 55.7433 10.8193 55.7194 10.9506 55.7732C10.9386 55.8985 10.873 55.9702 10.7477 55.9821C10.6283 55.9881 10.503 55.9941 10.3836 55.9941C7.1671 55.9941 3.95653 55.9941 0.73999 55.9941C0.531124 55.9941 0.262582 56.1015 0.161133 55.7791L0.1671 55.7732Z" fill="#683525"/>
<path d="M44.4525 19.1522C44.5062 19.5164 44.5062 19.8865 44.4525 20.2507C44.3809 20.2268 44.3033 20.197 44.2854 20.1194C44.2317 19.8388 44.2317 19.5582 44.2854 19.2836C44.3033 19.206 44.3809 19.1761 44.4525 19.1522Z" fill="#683525"/>
<path d="M46.0641 19.2419C46.0164 19.1225 46.0164 18.9971 46.0641 18.8777C46.3207 19.0329 46.3207 19.0866 46.0641 19.2419Z" fill="#683525"/>
<path d="M37.465 37.1941C37.3755 37.206 37.2681 37.218 37.2203 37.1344C37.1726 37.0329 37.274 37.021 37.3457 37.0031C37.3874 37.0687 37.4232 37.1344 37.465 37.2001V37.1941Z" fill="#683525"/>
<path d="M34.1582 35.8269C34.1105 36.0011 34.1045 36.0011 33.8896 35.8269C33.9792 35.8269 34.0687 35.8269 34.1582 35.8269Z" fill="#683525"/>
<path d="M0.0722656 45.8209C0.167747 45.8089 0.257261 45.8089 0.305002 45.911C0.215488 45.911 0.131942 45.893 0.0722656 45.8209Z" fill="#683525"/>
<path d="M17.5801 11.6364C17.6815 11.4502 17.7949 11.5583 17.9083 11.6244C17.8009 11.6244 17.6935 11.6304 17.5801 11.6364Z" fill="#683525"/>
<path d="M52.0908 11.6244C52.2042 11.5643 52.3236 11.4562 52.4369 11.6244C52.3236 11.6244 52.2042 11.6244 52.0908 11.6244Z" fill="#683525"/>
<path d="M45.259 13.0096C45.1277 13.1237 45.0859 13.0576 45.0859 12.9194C45.1456 12.9495 45.1993 12.9795 45.259 13.0096Z" fill="#683525"/>
<path d="M17.5687 9.86267C17.4971 9.8746 17.4374 9.86267 17.3896 9.80896C17.4493 9.82686 17.509 9.84477 17.5687 9.86267Z" fill="#683525"/>
<path d="M17.9443 11.6359C18.0338 11.6359 18.1234 11.6359 18.183 11.7194C18.0935 11.7194 18.01 11.7015 17.9443 11.6359Z" fill="#683525"/>
<path d="M51.8105 11.7194C51.8702 11.6418 51.9538 11.6299 52.0433 11.6418C51.9776 11.7015 51.8941 11.7194 51.8105 11.7194Z" fill="#683525"/>
<path d="M50.7363 12.0836C50.7841 12.0119 50.8617 12 50.9392 12.006C50.8796 12.0597 50.8139 12.0836 50.7363 12.0836Z" fill="#683525"/>
<path d="M50.4678 12.1791C50.5155 12.1134 50.5812 12.0955 50.6587 12.1075C50.605 12.1552 50.5394 12.1791 50.4678 12.1791Z" fill="#683525"/>
<path d="M50.0146 12.3582C50.0624 12.2926 50.128 12.2746 50.2056 12.2806C50.1519 12.3343 50.0863 12.3582 50.0146 12.3582Z" fill="#683525"/>
<path d="M25.6494 38.4059C25.727 38.394 25.7986 38.4119 25.8463 38.4775C25.7688 38.4775 25.7031 38.4537 25.6494 38.4059Z" fill="#683525"/>
<path d="M45.4139 12.9135C45.3781 12.9735 45.3304 13.0096 45.2588 13.0096C45.3125 12.9795 45.3602 12.9435 45.4139 12.9135Z" fill="#683525"/>
<path d="M24.8972 13.0089C24.8435 13.1402 24.7958 13.0507 24.748 13.0089C24.7958 13.0089 24.8495 13.0089 24.8972 13.0089Z" fill="#683525"/>
<path d="M44.9717 38.203C45.0194 38.1373 45.091 38.1254 45.1686 38.1314C45.1149 38.1791 45.0493 38.203 44.9717 38.203Z" fill="#683525"/>
<path d="M45.4307 38.0179C45.4784 37.9522 45.544 37.9343 45.6216 37.9403C45.5679 37.994 45.5023 38.0179 45.4307 38.0179Z" fill="#683525"/>
<path d="M47.2871 37.111C47.3229 37.0509 47.3826 37.0209 47.4482 37.0209C47.4065 37.0749 47.3528 37.105 47.2871 37.111Z" fill="#683525"/>
<path d="M36.1102 35.8387C36.0207 35.8928 35.9372 36.0731 35.8477 35.8448C35.9372 35.8448 36.0267 35.8448 36.1102 35.8387Z" fill="#683525"/>
<path d="M36.3664 26.0836C36.2053 26.0298 36.2769 25.9463 36.3426 25.8627C36.3485 25.9343 36.3605 26.0119 36.3664 26.0836Z" fill="#683525"/>
<path d="M33.7046 25.9343C33.7464 26.0244 33.7464 26.0905 33.6211 26.0905C33.6509 26.0365 33.6748 25.9884 33.7046 25.9343Z" fill="#683525"/>
<path d="M29.3125 18.8895C29.354 18.8895 29.3778 18.9192 29.3778 18.9607C29.354 18.937 29.3303 18.9133 29.3125 18.8895Z" fill="#683525"/>
<path d="M29.2236 18.7941C29.2711 18.7941 29.3007 18.8237 29.3007 18.8771C29.277 18.8475 29.2474 18.8237 29.2236 18.7941Z" fill="#683525"/>
<path d="M29.8623 19.5165C29.9157 19.5225 29.9394 19.5523 29.9394 19.6061C29.9157 19.5762 29.886 19.5463 29.8623 19.5165Z" fill="#683525"/>
<path d="M14.2862 25.2656C14.2862 25.2656 14.3161 25.3077 14.322 25.3317C14.322 25.3437 14.3161 25.3557 14.3101 25.3678C14.2982 25.3317 14.2922 25.3017 14.2803 25.2656H14.2862Z" fill="#683525"/>
<path d="M33.5312 25.4507C33.573 25.4747 33.5909 25.5108 33.579 25.5588C33.5611 25.5228 33.5492 25.4867 33.5312 25.4507Z" fill="#683525"/>
<path d="M55.6547 25.5591C55.6428 25.505 55.6547 25.4629 55.7024 25.4269C55.6845 25.4689 55.6726 25.517 55.6547 25.5591Z" fill="#683525"/>
<path d="M36.4021 25.6544C36.3901 25.6064 36.408 25.5643 36.4498 25.5403C36.4319 25.5763 36.414 25.6184 36.4021 25.6544Z" fill="#683525"/>
<path d="M29.1279 18.6985C29.1754 18.7044 29.205 18.7341 29.205 18.7815C29.1813 18.7519 29.1517 18.7222 29.1279 18.6985Z" fill="#683525"/>
<path d="M28.0293 17.6C28.0827 17.6 28.1123 17.6296 28.1183 17.683C28.0886 17.6534 28.059 17.6296 28.0293 17.6Z" fill="#683525"/>
<path d="M45.0134 26.6635C45.0015 26.6095 45.0194 26.5674 45.0611 26.5374C45.0432 26.5794 45.0253 26.6215 45.0134 26.6635Z" fill="#683525"/>
<path d="M27.8506 26.9253C27.8924 26.9493 27.9103 26.9794 27.8983 27.0274C27.8804 26.9914 27.8685 26.9613 27.8506 26.9253Z" fill="#683525"/>
<path d="M25.1064 27.0029C25.1482 27.033 25.1661 27.069 25.1542 27.1231C25.1363 27.081 25.1243 27.045 25.1064 27.0029Z" fill="#683525"/>
<path d="M42.0837 27.1171C42.0718 27.063 42.0897 27.027 42.1314 27.0029C42.1135 27.039 42.0956 27.081 42.0837 27.1171Z" fill="#683525"/>
<path d="M44.8354 27.2127C44.8234 27.1646 44.8354 27.1225 44.8831 27.0985C44.8652 27.1346 44.8533 27.1766 44.8354 27.2127Z" fill="#683525"/>
<path d="M55.087 27.4874C55.0811 27.4273 55.099 27.3793 55.1467 27.3492C55.1288 27.3973 55.1049 27.4454 55.087 27.4874Z" fill="#683525"/>
<path d="M25.4697 28.0179C25.5115 28.042 25.5294 28.078 25.5175 28.1261C25.4996 28.09 25.4817 28.054 25.4697 28.0179Z" fill="#683525"/>
<path d="M44.4645 28.2156C44.4526 28.1675 44.4705 28.1315 44.5182 28.1074C44.5003 28.1435 44.4824 28.1795 44.4645 28.2156Z" fill="#683525"/>
<path d="M15.2002 28.215C15.2417 28.2329 15.2595 28.2627 15.2477 28.3105C15.2299 28.2807 15.218 28.2508 15.2002 28.215Z" fill="#683525"/>
<path d="M51.5957 33.5344C51.5957 33.4866 51.6254 33.4568 51.6728 33.4448C51.6491 33.4747 51.6194 33.5045 51.5957 33.5344Z" fill="#683525"/>
<path d="M51.5186 33.6234C51.5186 33.5819 51.5423 33.5582 51.5838 33.5522C51.5601 33.576 51.5423 33.5997 51.5186 33.6234Z" fill="#683525"/>
<path d="M18.5 33.6299C18.5534 33.6359 18.5771 33.6717 18.5771 33.7195C18.5534 33.6896 18.5237 33.6597 18.5 33.6299Z" fill="#683525"/>
<path d="M18.5889 33.7313C18.6363 33.7373 18.666 33.7669 18.666 33.8144C18.6423 33.7847 18.6126 33.761 18.5889 33.7313Z" fill="#683525"/>
<path d="M21.412 11.2117C21.3764 11.2236 21.3527 11.2117 21.3408 11.1761C21.3645 11.1821 21.3883 11.1939 21.412 11.2117Z" fill="#683525"/>
<path d="M18.7686 33.9224C18.8101 33.9224 18.8397 33.952 18.8397 33.9935C18.816 33.9698 18.7923 33.9461 18.7686 33.9224Z" fill="#683525"/>
<path d="M18.8584 34.0179C18.8999 34.0179 18.9237 34.0476 18.9237 34.0891C18.8999 34.0654 18.8821 34.0417 18.8584 34.0179Z" fill="#683525"/>
<path d="M40.8662 34.0836C40.8662 34.0358 40.8959 34 40.9433 33.994C40.9196 34.0239 40.8899 34.0537 40.8662 34.0836Z" fill="#683525"/>
<path d="M18.9531 34.1134C18.9831 34.1134 19.0031 34.1284 18.9981 34.1634C18.9781 34.1534 18.9631 34.1384 18.9531 34.1134Z" fill="#683525"/>
<path d="M40.7764 34.1786C40.7764 34.1252 40.806 34.1015 40.8535 34.0956C40.8298 34.1252 40.8001 34.149 40.7764 34.1786Z" fill="#683525"/>
<path d="M40.6924 34.2682C40.6924 34.2207 40.7161 34.197 40.7636 34.191C40.7398 34.2148 40.7161 34.2444 40.6924 34.2682Z" fill="#683525"/>
<path d="M40.6094 34.3475C40.6094 34.3075 40.6294 34.2925 40.6644 34.2925C40.6444 34.3125 40.6244 34.3325 40.6094 34.3475Z" fill="#683525"/>
<path d="M29.4971 34.4537C29.5445 34.4597 29.5742 34.4896 29.5742 34.5433C29.5505 34.5135 29.5208 34.4836 29.4971 34.4537Z" fill="#683525"/>
<path d="M29.5879 34.5552C29.6353 34.5552 29.665 34.5848 29.6709 34.6382C29.6413 34.6086 29.6176 34.5848 29.5879 34.5552Z" fill="#683525"/>
<path d="M29.6768 34.6448C29.7242 34.6448 29.7539 34.6744 29.7598 34.7278C29.7301 34.6982 29.7064 34.6744 29.6768 34.6448Z" fill="#683525"/>
<path d="M29.7725 34.7344C29.8199 34.7344 29.8496 34.764 29.8555 34.8174C29.8259 34.7878 29.8021 34.764 29.7725 34.7344Z" fill="#683525"/>
<path d="M29.8623 34.8239C29.9098 34.8239 29.9454 34.8535 29.9513 34.901C29.9216 34.8772 29.892 34.8476 29.8623 34.8239Z" fill="#683525"/>
<path d="M39.7686 35.1876C39.7686 35.1402 39.7982 35.1165 39.8457 35.1165C39.8219 35.1402 39.7923 35.1639 39.7686 35.1876Z" fill="#683525"/>
<path d="M39.6729 35.2771C39.6788 35.2296 39.7084 35.2 39.7559 35.2C39.7262 35.2237 39.6966 35.2533 39.6729 35.2771Z" fill="#683525"/>
<path d="M49.8594 35.2773C49.8594 35.2357 49.8831 35.212 49.9306 35.2179C49.9068 35.2357 49.8831 35.2595 49.8594 35.2773Z" fill="#683525"/>
<path d="M49.7578 35.3667C49.7637 35.3193 49.7934 35.2955 49.8409 35.2955C49.8112 35.3193 49.7875 35.343 49.7578 35.3667Z" fill="#683525"/>
<path d="M49.6562 35.4563C49.6681 35.4088 49.6978 35.3792 49.7452 35.3792C49.7156 35.4029 49.6859 35.4325 49.6562 35.4563Z" fill="#683525"/>
<path d="M39.1289 35.7309C39.1289 35.6894 39.1586 35.6656 39.2001 35.6656C39.1764 35.6894 39.1526 35.7072 39.1289 35.7309Z" fill="#683525"/>
<path d="M39.0225 35.8204C39.0343 35.7729 39.064 35.7433 39.1114 35.7433C39.0818 35.767 39.0521 35.7907 39.0225 35.8204Z" fill="#683525"/>
<path d="M27.9404 17.5105C27.9879 17.5105 28.0175 17.5402 28.0235 17.5876C27.9938 17.5639 27.9701 17.5342 27.9404 17.5105Z" fill="#683525"/>
<path d="M27.8447 17.4269C27.8922 17.4269 27.9218 17.4506 27.9218 17.4981C27.8981 17.4743 27.8685 17.4506 27.8447 17.4269Z" fill="#683525"/>
<path d="M31.5146 36.2209C31.5621 36.2209 31.5858 36.2447 31.5977 36.2862C31.568 36.2625 31.5443 36.2447 31.5146 36.2209Z" fill="#683525"/>
<path d="M31.6045 36.2925C31.6582 36.2925 31.694 36.3163 31.7119 36.3701C31.6761 36.3462 31.6403 36.3164 31.6045 36.2925Z" fill="#683525"/>
<path d="M26.4608 36.979C26.4131 36.991 26.3832 36.979 26.3594 36.9373C26.3952 36.9492 26.425 36.9671 26.4608 36.979Z" fill="#683525"/>
<path d="M37.3516 37.003C37.3695 36.9493 37.4053 36.9254 37.459 36.9254C37.4232 36.9493 37.3874 36.9732 37.3516 37.003Z" fill="#683525"/>
<path d="M42.6924 16.9487C42.6983 16.9012 42.728 16.8716 42.7814 16.8716C42.7517 16.8953 42.722 16.925 42.6924 16.9487Z" fill="#683525"/>
<path d="M42.7939 16.8593C42.7939 16.8118 42.8236 16.7881 42.8711 16.7881C42.8473 16.8118 42.8177 16.8355 42.7939 16.8593Z" fill="#683525"/>
<path d="M27.194 37.1702C27.1343 37.1821 27.0866 37.1702 27.0508 37.1165C27.0985 37.1344 27.1463 37.1523 27.194 37.1702Z" fill="#683525"/>
<path d="M47.1553 37.1881C47.1791 37.1403 47.215 37.1165 47.2687 37.1165C47.2329 37.1403 47.1911 37.1642 47.1553 37.1881Z" fill="#683525"/>
<path d="M28.1071 37.3493C28.0534 37.3612 27.9997 37.3552 27.9639 37.3075C28.0116 37.3194 28.0593 37.3373 28.1071 37.3493Z" fill="#683525"/>
<path d="M38.2819 37.3491C38.2222 37.3611 38.1745 37.3611 38.1387 37.3074C38.1864 37.3193 38.2342 37.3372 38.2819 37.3491Z" fill="#683525"/>
<path d="M42.0242 37.3075C41.9884 37.3612 41.9347 37.3672 41.875 37.3552C41.9227 37.3373 41.9705 37.3254 42.0242 37.3075Z" fill="#683525"/>
<path d="M53.7031 14.9075C53.7449 14.9315 53.7628 14.9676 53.7449 15.0216C53.733 14.9856 53.7151 14.9495 53.7031 14.9075Z" fill="#683525"/>
<path d="M53.332 13.803C53.3738 13.833 53.3917 13.8691 53.3857 13.9231C53.3678 13.8811 53.3499 13.839 53.332 13.803Z" fill="#683525"/>
<path d="M24.3307 12.7494L24.3107 12.7544L24.3057 12.7344L24.3307 12.7494Z" fill="#683525"/>
<path d="M50.7598 10.3582C50.742 10.3937 50.7183 10.4115 50.6768 10.3997C50.7064 10.3878 50.7301 10.37 50.7598 10.3582Z" fill="#683525"/>
<path d="M51.0282 10.2627L50.9986 10.2924H50.957C50.9748 10.2805 50.9986 10.2746 51.0223 10.2686L51.0282 10.2627Z" fill="#683525"/>
<path d="M18.3753 44.4618H18.3403L18.3203 44.4418C18.3403 44.4418 18.3553 44.4518 18.3753 44.4618Z" fill="#683525"/>
<path d="M18.9355 44.6624C18.894 44.6802 18.8762 44.6624 18.8584 44.6268C18.8881 44.6268 18.9118 44.6446 18.9355 44.6624Z" fill="#683525"/>
<path d="M21.0478 45.3968C21.0122 45.4146 20.9885 45.3968 20.9707 45.3612C21.0004 45.3612 21.0241 45.379 21.0478 45.3968Z" fill="#683525"/>
<path d="M21.3213 45.4982C21.2798 45.5101 21.2561 45.4982 21.2383 45.4567C21.2679 45.4685 21.2976 45.4804 21.3213 45.4982Z" fill="#683525"/>
<path d="M48.2619 11.3612L48.2419 11.3862H48.2119C48.2269 11.3762 48.2469 11.3662 48.2619 11.3612Z" fill="#683525"/>
<path d="M18.2069 10.0358C18.1592 10.0477 18.1293 10.0358 18.1055 9.99402C18.1413 10.006 18.1711 10.0239 18.2069 10.0358Z" fill="#683525"/>
<path d="M17.831 9.91636H17.7894L17.7598 9.89856C17.7835 9.89856 17.8072 9.90449 17.831 9.91636Z" fill="#683525"/>
<path d="M21.5821 11.2916H21.5521L21.5371 11.2716C21.5521 11.2716 21.5671 11.2816 21.5821 11.2916Z" fill="#683525"/>
<path d="M12.3525 54.2443C12.3525 54.2443 12.3822 54.1909 12.3941 54.1613C12.3822 54.1909 12.3644 54.2146 12.3525 54.2443Z" fill="#683525"/>
<path d="M12.2754 54.3403C12.2754 54.2925 12.3051 54.2627 12.3525 54.2507C12.3288 54.2806 12.2991 54.3105 12.2754 54.3403Z" fill="#683525"/>
<path d="M12.2031 54.4234C12.2031 54.3759 12.2209 54.3581 12.2624 54.3522C12.2446 54.3759 12.2209 54.3996 12.2031 54.4234Z" fill="#683525"/>
<path d="M14.46 54.7224C14.5015 54.7224 14.5252 54.7521 14.5193 54.7936C14.5015 54.7699 14.4778 54.7461 14.46 54.7224Z" fill="#683525"/>
<path d="M11.8213 54.8896C11.8213 54.8359 11.845 54.812 11.8925 54.8C11.8687 54.8299 11.845 54.8598 11.8213 54.8896Z" fill="#683525"/>
<path d="M11.7451 54.9846C11.7451 54.9431 11.7688 54.9194 11.8104 54.9135C11.7866 54.9372 11.7688 54.9609 11.7451 54.9846Z" fill="#683525"/>
<path d="M11.6787 55.0509V55.0259L11.7087 55.0209C11.7037 55.0359 11.6937 55.0459 11.6787 55.0559V55.0509Z" fill="#683525"/>
<path d="M10.957 55.7789C10.9808 55.7374 11.0164 55.7433 11.0519 55.7552C11.0223 55.7611 10.9867 55.773 10.957 55.7789Z" fill="#683525"/>
<path d="M18.6787 33.8269C18.7262 33.8328 18.7499 33.8566 18.7499 33.904C18.7262 33.8803 18.7024 33.8506 18.6787 33.8269Z" fill="#683525"/>
</g>
<defs>
<clipPath id="clip0_277_83">
<rect width="70" height="56" fill="white"/>
</clipPath>
</defs>
</svg>
